<svg width="12" height="12" viewBox="0 0 12 12" fill="none" xmlns="http://www.w3.org/2000/svg">
<path d="M9.30037 2.622V2.62237C9.30037 2.99512 8.99812 3.297 8.62575 3.297C8.25338 3.297 7.95112 2.99475 7.95112 2.62237C7.95112 2.24962 8.25338 1.94775 8.62575 1.94775C8.99812 1.94812 9.3 2.24962 9.30037 2.622ZM5.6235 7.49812C4.58812 7.49812 3.74887 6.65887 3.74887 5.6235C3.74887 4.58812 4.58812 3.74887 5.6235 3.74887C6.65887 3.74887 7.49812 4.58812 7.49812 5.6235C7.49812 6.6585 6.65925 7.49775 5.62425 7.49775H5.62387L5.6235 7.49812ZM5.6235 2.736C4.02863 2.736 2.736 4.029 2.736 5.6235C2.736 7.218 4.029 8.511 5.6235 8.511C7.21837 8.511 8.511 7.218 8.511 5.6235C8.511 5.6235 8.511 5.6235 8.511 5.62312C8.511 4.02862 7.21837 2.73562 5.6235 2.73562C5.6235 2.73562 5.6235 2.73562 5.62312 2.73562L5.6235 2.736ZM5.6235 1.0125C7.12462 1.0125 7.3035 1.02 7.89637 1.04587C8.2725 1.05037 8.63025 1.12162 8.96137 1.24762L8.94 1.2405C9.43275 1.4325 9.81525 1.815 10.0031 2.295L10.0076 2.30775C10.1261 2.6175 10.1966 2.97562 10.2011 3.3495V3.35137C10.2277 3.94462 10.2337 4.12275 10.2337 5.62425C10.2337 7.12575 10.2266 7.30425 10.1992 7.89712C10.1921 8.27362 10.1205 8.63137 9.99487 8.9625L10.002 8.94075C9.90525 9.19425 9.762 9.41025 9.58087 9.588L9.5805 9.58837C9.40312 9.76987 9.18712 9.91312 8.946 10.0042L8.934 10.0084C8.62312 10.1269 8.26388 10.1974 7.8885 10.2019H7.88662C7.28962 10.2285 7.11375 10.2345 5.60962 10.2345C4.10475 10.2345 3.92925 10.2274 3.33262 10.2C2.95462 10.1929 2.59538 10.1212 2.26275 9.99562L2.28487 10.0027C2.03137 9.9075 1.81537 9.76387 1.63912 9.582L1.63875 9.58162C1.45537 9.40537 1.31138 9.189 1.221 8.94675L1.21725 8.93512C1.09912 8.62462 1.0275 8.26575 1.02037 7.89075V7.88775C0.999375 7.29712 0.991875 7.11487 0.991875 5.61787C0.991875 4.12012 0.999375 3.9375 1.02037 3.33975C1.0275 2.96212 1.09875 2.60325 1.22437 2.271L1.21725 2.29312C1.30987 2.0385 1.45425 1.82175 1.63838 1.64662L1.63912 1.64587C1.81462 1.46137 2.031 1.31775 2.27362 1.22887L2.28525 1.22512C2.59387 1.10587 2.9505 1.03425 3.32325 1.02787H3.32587C3.92325 1.00687 4.09912 0.99975 5.60287 0.99975L5.6235 1.0125ZM5.6235 0C4.09575 0 3.90525 0.00712501 3.30525 0.03375C2.81212 0.04425 2.3445 0.1395 1.91175 0.304875L1.94025 0.2955C1.55025 0.444375 1.218 0.66525 0.94425 0.9435L0.943875 0.943875C0.6645 1.21762 0.444 1.55025 0.3015 1.9215L0.295125 1.94025C0.139125 2.3445 0.043875 2.8125 0.03375 3.30075V3.30525C0.00562501 3.90525 0 4.09575 0 5.6235C0 7.15125 0.00712501 7.34175 0.03375 7.94175C0.04425 8.43487 0.1395 8.9025 0.304875 9.33525L0.2955 9.30675C0.594 10.0646 1.18237 10.653 1.92075 10.9447L1.94025 10.9515C2.3445 11.1071 2.8125 11.2024 3.30075 11.2129H3.30525C3.90525 11.241 4.09575 11.2466 5.6235 11.2466C7.15125 11.2466 7.34175 11.2395 7.94175 11.2129C8.43487 11.202 8.9025 11.1071 9.33525 10.9417L9.30675 10.9515C10.0646 10.653 10.653 10.0646 10.9447 9.32625L10.9515 9.30675C11.1075 8.9025 11.2024 8.4345 11.2129 7.94625V7.94175C11.241 7.34175 11.2466 7.15125 11.2466 5.6235C11.2466 4.09575 11.2395 3.90525 11.2129 3.30525C11.202 2.81212 11.1071 2.3445 10.9417 1.91175L10.9515 1.94025C10.8022 1.55025 10.5817 1.218 10.3031 0.94425L10.3027 0.943875C10.029 0.6645 9.69637 0.444 9.32512 0.3015L9.30637 0.295125C8.90212 0.139125 8.43412 0.043875 7.94587 0.03375H7.94137C7.34137 0.00562501 7.15087 0 5.62312 0H5.6235Z" fill="white"/>
</svg>
