<svg width="237" height="89" viewBox="0 0 237 89" fill="none" xmlns="http://www.w3.org/2000/svg">
<path d="M2.15993 39.936V7.68003H-6.63698e-05V3.36003H1.00793C2.06393 3.36003 2.59193 2.73603 2.59193 1.48803V0.432034H6.52793V39.936H2.15993ZM17.2526 27.888C17.2526 25.968 17.2526 24.24 17.2526 22.704C17.2846 21.136 17.3006 19.712 17.3006 18.432C17.3326 17.12 17.3646 15.936 17.3966 14.88C17.4286 13.792 17.4606 12.752 17.4926 11.76C17.2046 12.752 16.9006 13.792 16.5806 14.88C16.2926 15.936 15.9566 17.104 15.5726 18.384C15.1886 19.664 14.7566 21.088 14.2766 22.656C13.8286 24.192 13.3006 25.936 12.6926 27.888H17.2526ZM17.2526 39.936V32.064H8.75656V28.224L17.2046 0.432034H21.3806V27.888H23.3006V32.064H21.3806V39.936H17.2526ZM23.9486 21.744V18.336H31.6286V21.744H23.9486ZM41.9324 7.20003C41.9324 5.66403 41.2924 4.89603 40.0124 4.89603H38.1884V35.52H40.0124C41.2924 35.52 41.9324 34.752 41.9324 33.216V7.20003ZM33.7724 39.936V0.432034H40.0124C42.1244 0.432034 43.7084 1.04003 44.7644 2.25603C45.8204 3.44003 46.3484 5.08803 46.3484 7.20003V33.216C46.3484 37.696 44.2364 39.936 40.0124 39.936H33.7724ZM58.2742 39.936L57.5542 33.84H52.7062C52.5462 34.864 52.4022 35.888 52.2742 36.912C52.1782 37.904 52.0662 38.912 51.9382 39.936H47.6182L52.7542 0.432034H57.8902L62.7382 39.936H58.2742ZM57.0742 29.76C56.7222 26.752 56.3862 23.792 56.0662 20.88C55.7462 17.936 55.4422 14.912 55.1542 11.808C54.5782 18.016 53.9062 24 53.1382 29.76H57.0742ZM66.5834 39.936V22.656L61.3034 0.432034H65.9594C66.2474 2.06403 66.5514 3.71203 66.8714 5.37603C67.2234 7.04003 67.5434 8.59203 67.8314 10.032C68.1194 11.44 68.3754 12.688 68.5994 13.776C68.8234 14.832 68.9674 15.584 69.0314 16.032C69.0954 15.584 69.2394 14.832 69.4634 13.776C69.7194 12.688 69.9914 11.424 70.2794 9.98403C70.5994 8.54403 70.9354 7.00803 71.2874 5.37603C71.6394 3.71203 71.9594 2.06403 72.2474 0.432034H76.5674L71.0954 22.656V39.936H66.5834ZM99.5943 39.936V28.416C99.5943 25.824 99.6103 23.248 99.6423 20.688C99.6743 18.128 99.7223 15.552 99.7863 12.96C99.5623 14.592 99.3223 16.256 99.0663 17.952C98.8423 19.648 98.5863 21.552 98.2983 23.664C98.0423 25.744 97.7383 28.112 97.3863 30.768C97.0663 33.392 96.6823 36.448 96.2343 39.936H92.3943L88.9383 12.96C89.0023 15.552 89.0503 18.128 89.0823 20.688C89.1143 23.248 89.1303 25.824 89.1303 28.416V39.936H85.0503V0.432034H90.9543C91.4343 4.91203 91.8503 8.68803 92.2023 11.76C92.5543 14.8 92.8583 17.424 93.1143 19.632C93.3703 21.808 93.5783 23.664 93.7383 25.2C93.9303 26.736 94.1063 28.208 94.2663 29.616C94.4263 28.24 94.6023 26.784 94.7943 25.248C94.9863 23.68 95.2103 21.808 95.4663 19.632C95.7223 17.424 96.0263 14.784 96.3783 11.712C96.7303 8.64003 97.1463 4.88003 97.6263 0.432034H103.674V39.936H99.5943ZM106.703 6.72003C106.703 2.24003 108.799 3.43323e-05 112.991 3.43323e-05C117.215 3.43323e-05 119.327 2.24003 119.327 6.72003V33.648C119.327 38.128 117.215 40.368 112.991 40.368C108.799 40.368 106.703 38.128 106.703 33.648V6.72003ZM114.911 6.72003C114.911 5.21603 114.271 4.46403 112.991 4.46403C111.743 4.46403 111.119 5.21603 111.119 6.72003V33.648C111.119 35.184 111.743 35.952 112.991 35.952C114.271 35.952 114.911 35.184 114.911 33.648V6.72003ZM131.82 39.936C131.084 36.544 130.428 33.552 129.852 30.96C129.276 28.368 128.748 26.048 128.268 24C127.82 21.92 127.404 20.048 127.02 18.384C126.668 16.688 126.332 15.04 126.012 13.44C126.076 16.16 126.108 18.88 126.108 21.6C126.108 24.288 126.108 26.992 126.108 29.712V39.936H122.316V0.432034H127.5C128.14 4.08003 128.7 7.24803 129.18 9.93604C129.692 12.624 130.14 14.992 130.524 17.04C130.908 19.088 131.244 20.928 131.532 22.56C131.852 24.16 132.156 25.728 132.444 27.264C132.38 24.96 132.348 22.704 132.348 20.496C132.348 18.288 132.348 16.08 132.348 13.872V0.432034H136.14V39.936H131.82ZM139.522 39.936V0.432034H150.178V4.89603H143.938V17.568H148.114V22.032H143.938V35.52H150.418V39.936H139.522ZM156.958 39.936V22.656L151.678 0.432034H156.334C156.622 2.06403 156.926 3.71203 157.246 5.37603C157.598 7.04003 157.918 8.59203 158.206 10.032C158.494 11.44 158.75 12.688 158.974 13.776C159.198 14.832 159.342 15.584 159.406 16.032C159.47 15.584 159.614 14.832 159.838 13.776C160.094 12.688 160.366 11.424 160.654 9.98403C160.974 8.54403 161.31 7.00803 161.662 5.37603C162.014 3.71203 162.334 2.06403 162.622 0.432034H166.942L161.47 22.656V39.936H156.958ZM183.777 7.15203C183.777 6.32003 183.633 5.74403 183.345 5.42403C183.057 5.07203 182.593 4.89603 181.953 4.89603H179.985V17.808H182.001C183.185 17.808 183.777 17.12 183.777 15.744V7.15203ZM183.873 24C183.873 23.168 183.729 22.576 183.441 22.224C183.185 21.872 182.705 21.696 182.001 21.696H179.985V35.52H181.953C183.233 35.52 183.873 34.752 183.873 33.216V24ZM175.569 39.936V0.432034H181.953C184.097 0.432034 185.617 0.976034 186.513 2.06403C187.441 3.15203 187.905 4.89603 187.905 7.29603V15.312C187.905 17.552 187.201 18.944 185.793 19.488C186.497 19.648 187.105 20.064 187.617 20.736C188.129 21.408 188.385 22.368 188.385 23.616V33.264C188.385 35.6 187.841 37.296 186.753 38.352C185.697 39.408 184.097 39.936 181.953 39.936H175.569ZM200.024 39.936L199.304 33.84H194.456C194.296 34.864 194.152 35.888 194.024 36.912C193.928 37.904 193.816 38.912 193.688 39.936H189.368L194.504 0.432034H199.64L204.488 39.936H200.024ZM198.824 29.76C198.472 26.752 198.136 23.792 197.816 20.88C197.496 17.936 197.192 14.912 196.904 11.808C196.328 18.016 195.656 24 194.888 29.76H198.824ZM214.099 25.44H218.131V33.6C218.131 35.904 217.667 37.616 216.739 38.736C215.811 39.824 214.323 40.368 212.275 40.368C208.019 40.368 205.891 38.144 205.891 33.696V6.81603C205.891 2.27203 208.019 3.43323e-05 212.275 3.43323e-05C216.179 3.43323e-05 218.131 2.24003 218.131 6.72003V13.728H214.099V6.72003C214.099 5.95203 213.955 5.39203 213.667 5.04003C213.411 4.65603 212.947 4.46403 212.275 4.46403C211.027 4.46403 210.403 5.21603 210.403 6.72003V33.648C210.403 35.184 211.027 35.952 212.275 35.952C213.491 35.952 214.099 35.184 214.099 33.648V25.44ZM230.926 39.936C229.934 36.64 228.99 33.44 228.094 30.336C227.198 27.2 226.286 24.032 225.358 20.832C225.422 22.464 225.454 24.144 225.454 25.872C225.454 27.568 225.454 29.488 225.454 31.632V39.936H220.99V0.432034H225.454V8.59203C225.454 10.544 225.454 12.176 225.454 13.488C225.454 14.768 225.422 16.016 225.358 17.232C226.254 14.32 227.15 11.504 228.046 8.78403C228.942 6.03203 229.854 3.24803 230.782 0.432034H235.534L229.198 18.24L236.014 39.936H230.926ZM12.8639 88.176L11.4239 86.304C10.9759 87.04 10.3199 87.568 9.45593 87.888C8.59193 88.208 7.66393 88.368 6.67193 88.368C5.80793 88.368 5.00793 88.256 4.27193 88.032C3.56793 87.808 2.94393 87.44 2.39993 86.928C1.85593 86.384 1.42393 85.68 1.10393 84.816C0.815934 83.952 0.671934 82.896 0.671934 81.648V54.768C0.671934 52.56 1.19993 50.88 2.25593 49.728C3.31193 48.576 4.89593 48 7.00793 48C9.15193 48 10.7039 48.576 11.6639 49.728C12.6239 50.88 13.1039 52.56 13.1039 54.768V61.728H9.11993V54.72C9.11993 53.216 8.41593 52.464 7.00793 52.464C5.72793 52.464 5.08793 53.216 5.08793 54.72V81.648C5.08793 82.448 5.26393 83.04 5.61593 83.424C5.96793 83.776 6.41593 83.952 6.95993 83.952C8.30393 83.952 9.02393 83.28 9.11993 81.936V73.44H6.76793V69.216H13.3919V88.176H12.8639ZM24.4916 48.432H28.9076V81.648C28.9076 86.128 26.8116 88.368 22.6196 88.368C18.4276 88.368 16.3316 86.128 16.3316 81.648V48.432H20.7476V81.648C20.7476 83.184 21.3716 83.952 22.6196 83.952C23.8676 83.952 24.4916 83.184 24.4916 81.648V48.432ZM40.8367 87.936L40.1167 81.84H35.2687C35.1087 82.864 34.9647 83.888 34.8367 84.912C34.7407 85.904 34.6287 86.912 34.5007 87.936H30.1807L35.3167 48.432H40.4527L45.3007 87.936H40.8367ZM39.6367 77.76C39.2847 74.752 38.9487 71.792 38.6287 68.88C38.3087 65.936 38.0047 62.912 37.7167 59.808C37.1407 66.016 36.4687 72 35.7007 77.76H39.6367ZM56.1446 56.448C56.1446 55.232 56.0006 54.336 55.7126 53.76C55.4246 53.184 54.7526 52.896 53.6966 52.896H52.0166V66.144H53.7446C55.3446 66.144 56.1446 65.296 56.1446 63.6V56.448ZM56.1446 87.936C55.7926 84.928 55.4406 81.968 55.0886 79.056C54.7366 76.144 54.3206 73.184 53.8406 70.176H52.0166V87.936H47.5526V48.432H53.6966C56.0006 48.432 57.7286 48.976 58.8806 50.064C60.0646 51.12 60.6566 52.944 60.6566 55.536V63.552C60.6566 65.088 60.4486 66.304 60.0326 67.2C59.6166 68.064 58.9606 68.752 58.0646 69.264C58.6406 72.464 59.1526 75.6 59.6006 78.672C60.0806 81.744 60.5446 84.832 60.9926 87.936H56.1446ZM72.9461 87.936L72.2261 81.84H67.3781C67.2181 82.864 67.0741 83.888 66.9461 84.912C66.8501 85.904 66.7381 86.912 66.6101 87.936H62.2901L67.4261 48.432H72.5621L77.4101 87.936H72.9461ZM71.7461 77.76C71.3941 74.752 71.0581 71.792 70.7381 68.88C70.4181 65.936 70.1141 62.912 69.8261 59.808C69.2501 66.016 68.5781 72 67.8101 77.76H71.7461ZM89.0699 87.936C88.3339 84.544 87.6779 81.552 87.1019 78.96C86.5259 76.368 85.9979 74.048 85.5179 72C85.0699 69.92 84.6539 68.048 84.2699 66.384C83.9179 64.688 83.5819 63.04 83.2619 61.44C83.3259 64.16 83.3579 66.88 83.3579 69.6C83.3579 72.288 83.3579 74.992 83.3579 77.712V87.936H79.5659V48.432H84.7499C85.3899 52.08 85.9499 55.248 86.4299 57.936C86.9419 60.624 87.3899 62.992 87.7739 65.04C88.1579 67.088 88.4939 68.928 88.7819 70.56C89.1019 72.16 89.4059 73.728 89.6939 75.264C89.6299 72.96 89.5979 70.704 89.5979 68.496C89.5979 66.288 89.5979 64.08 89.5979 61.872V48.432H93.3899V87.936H89.0699ZM99.6524 87.936V52.896H95.5244V48.432H108.196V52.896H104.068V87.936H99.6524ZM110.366 87.936V48.432H121.022V52.896H114.782V65.568H118.958V70.032H114.782V83.52H121.262V87.936H110.366ZM123.866 87.936V48.432H134.522V52.896H128.282V65.568H132.458V70.032H128.282V83.52H134.762V87.936H123.866Z" fill="white"/>
</svg>
