<svg width="239" height="95" viewBox="0 0 239 95" fill="none" xmlns="http://www.w3.org/2000/svg">
<g clip-path="url(#clip0_41_6)">
<path d="M1.6527 94V90.52L19.7327 68.44L20.3327 70.4H1.9327V66H25.0127V69.48L6.9327 91.56L6.2927 89.6H25.5327V94H1.6527ZM39.1361 94.4C35.2961 94.4 32.2828 93.32 30.0961 91.16C27.9361 89 26.8561 85.88 26.8561 81.8V66H32.0561V81.6C32.0561 84.48 32.6695 86.5733 33.8961 87.88C35.1495 89.1867 36.9095 89.84 39.1761 89.84C41.4428 89.84 43.1895 89.1867 44.4161 87.88C45.6428 86.5733 46.2561 84.48 46.2561 81.6V66H51.3761V81.8C51.3761 85.88 50.2828 89 48.0961 91.16C45.9361 93.32 42.9495 94.4 39.1361 94.4ZM55.4586 94V66H68.5786C71.9386 66 74.4986 66.6667 76.2586 68C78.0186 69.3067 78.8986 71.0667 78.8986 73.28C78.8986 74.7733 78.552 76.0533 77.8586 77.12C77.1653 78.16 76.232 78.9733 75.0586 79.56C73.912 80.12 72.6586 80.4 71.2986 80.4L72.0186 78.96C73.592 78.96 75.0053 79.2533 76.2586 79.84C77.512 80.4 78.4986 81.2267 79.2186 82.32C79.9653 83.4133 80.3386 84.7733 80.3386 86.4C80.3386 88.8 79.4186 90.6667 77.5786 92C75.7386 93.3333 73.0053 94 69.3786 94H55.4586ZM60.6586 89.92H69.0586C71.0053 89.92 72.4986 89.6 73.5386 88.96C74.5786 88.32 75.0986 87.2933 75.0986 85.88C75.0986 84.4933 74.5786 83.48 73.5386 82.84C72.4986 82.1733 71.0053 81.84 69.0586 81.84H60.2586V77.8H68.0186C69.832 77.8 71.2186 77.48 72.1786 76.84C73.1653 76.2 73.6586 75.24 73.6586 73.96C73.6586 72.6533 73.1653 71.68 72.1786 71.04C71.2186 70.4 69.832 70.08 68.0186 70.08H60.6586V89.92ZM78.7283 94L91.3283 66H96.4483L109.088 94H103.648L92.8083 68.76H94.8883L84.0883 94H78.7283ZM84.5283 87.52L85.9283 83.44H101.048L102.448 87.52H84.5283ZM109.449 94V66H114.649V89.6H129.289V94H109.449ZM134.995 77.64H148.915V81.92H134.995V77.64ZM135.395 89.64H151.195V94H130.195V66H150.635V70.36H135.395V89.64ZM153.791 94V66H158.071L175.631 87.56H173.511V66H178.671V94H174.391L156.831 72.44H158.951V94H153.791ZM196.094 94.4C193.908 94.4 191.894 94.04 190.054 93.32C188.214 92.6 186.614 91.6 185.254 90.32C183.894 89.0133 182.841 87.4933 182.094 85.76C181.348 84 180.974 82.08 180.974 80C180.974 77.92 181.348 76.0133 182.094 74.28C182.841 72.52 183.894 71 185.254 69.72C186.614 68.4133 188.214 67.4 190.054 66.68C191.894 65.96 193.894 65.6 196.054 65.6C198.241 65.6 200.241 65.96 202.054 66.68C203.894 67.4 205.494 68.4133 206.854 69.72C208.214 71 209.268 72.52 210.014 74.28C210.761 76.0133 211.134 77.92 211.134 80C211.134 82.08 210.761 84 210.014 85.76C209.268 87.52 208.214 89.04 206.854 90.32C205.494 91.6 203.894 92.6 202.054 93.32C200.241 94.04 198.254 94.4 196.094 94.4ZM196.054 89.84C197.468 89.84 198.774 89.6 199.974 89.12C201.174 88.64 202.214 87.96 203.094 87.08C203.974 86.1733 204.654 85.1333 205.134 83.96C205.641 82.76 205.894 81.44 205.894 80C205.894 78.56 205.641 77.2533 205.134 76.08C204.654 74.88 203.974 73.84 203.094 72.96C202.214 72.0533 201.174 71.36 199.974 70.88C198.774 70.4 197.468 70.16 196.054 70.16C194.641 70.16 193.334 70.4 192.134 70.88C190.961 71.36 189.921 72.0533 189.014 72.96C188.134 73.84 187.441 74.88 186.934 76.08C186.454 77.2533 186.214 78.56 186.214 80C186.214 81.4133 186.454 82.72 186.934 83.92C187.441 85.12 188.134 86.1733 189.014 87.08C189.894 87.96 190.934 88.64 192.134 89.12C193.334 89.6 194.641 89.84 196.054 89.84ZM218.086 87.4L217.806 81.24L232.486 66H238.326L226.126 78.96L223.246 82.12L218.086 87.4ZM213.446 94V66H218.646V94H213.446ZM232.966 94L222.246 81.24L225.686 77.44L239.046 94H232.966Z" fill="white"/>
<path d="M11.7727 38.76L11.3807 30.136L31.9327 8.8H40.1087L23.0287 26.944L18.9967 31.368L11.7727 38.76ZM5.2767 48V8.8H12.5567V48H5.2767ZM32.6047 48L17.5967 30.136L22.4127 24.816L41.1167 48H32.6047ZM36.0343 48L53.6743 8.8H60.8423L78.5383 48H70.9223L55.7463 12.664H58.6583L43.5383 48H36.0343ZM44.1543 38.928L46.1143 33.216H67.2823L69.2423 38.928H44.1543ZM80.7236 48V8.8H96.8516C100.324 8.8 103.292 9.36 105.756 10.48C108.257 11.6 110.18 13.2053 111.524 15.296C112.868 17.3867 113.54 19.8693 113.54 22.744C113.54 25.6187 112.868 28.1013 111.524 30.192C110.18 32.2453 108.257 33.832 105.756 34.952C103.292 36.0347 100.324 36.576 96.8516 36.576H84.7556L88.0036 33.272V48H80.7236ZM106.372 48L96.4596 33.776H104.244L114.212 48H106.372ZM88.0036 34.056L84.7556 30.584H96.5156C99.7262 30.584 102.134 29.8933 103.74 28.512C105.382 27.1307 106.204 25.208 106.204 22.744C106.204 20.2427 105.382 18.32 103.74 16.976C102.134 15.632 99.7262 14.96 96.5156 14.96H84.7556L88.0036 11.376V34.056ZM127.97 48V32.488L129.594 36.968L112.57 8.8H120.354L134.018 31.48H129.65L143.426 8.8H150.594L133.57 36.968L135.25 32.488V48H127.97ZM152.069 48V8.8H158.061L182.645 38.984H179.677V8.8H186.901V48H180.909L156.325 17.816H159.293V48H152.069ZM189.061 48L206.701 8.8H213.869L231.565 48H223.949L208.773 12.664H211.685L196.565 48H189.061ZM197.181 38.928L199.141 33.216H220.309L222.269 38.928H197.181Z" fill="white"/>
</g>
<defs>
<clipPath id="clip0_41_6">
<rect width="239" height="95" fill="white"/>
</clipPath>
</defs>
</svg>
