<svg width="388" height="68" viewBox="0 0 388 68" fill="none" xmlns="http://www.w3.org/2000/svg">
<path d="M13.6801 11.9201C13.6801 10.5334 13.4401 9.57339 12.9601 9.04006C12.4801 8.45339 11.7068 8.16006 10.6401 8.16006H7.36012V29.6801H10.7201C12.6935 29.6801 13.6801 28.5334 13.6801 26.2401V11.9201ZM13.8401 40.0001C13.8401 38.6134 13.6001 37.6267 13.1201 37.0401C12.6935 36.4534 11.8935 36.1601 10.7201 36.1601H7.36012V59.2001H10.6401C12.7735 59.2001 13.8401 57.9201 13.8401 55.3601V40.0001ZM0.000117362 66.5601V0.720057H10.6401C14.2135 0.720057 16.7468 1.62672 18.2401 3.44006C19.7868 5.25339 20.5601 8.16006 20.5601 12.1601V25.5201C20.5601 29.2534 19.3868 31.5734 17.0401 32.4801C18.2135 32.7467 19.2268 33.4401 20.0801 34.5601C20.9335 35.6801 21.3601 37.2801 21.3601 39.3601V55.4401C21.3601 59.3334 20.4535 62.1601 18.6401 63.9201C16.8801 65.6801 14.2135 66.5601 10.6401 66.5601H0.000117362ZM26.0939 66.5601V0.720057H43.8539V8.16006H33.4539V29.2801H40.4139V36.7201H33.4539V59.2001H44.2539V66.5601H26.0939ZM68.4339 66.9601L66.0339 63.8401C65.2872 65.0667 64.1939 65.9467 62.7539 66.4801C61.3139 67.0134 59.7672 67.2801 58.1139 67.2801C56.6739 67.2801 55.3405 67.0934 54.1139 66.7201C52.9405 66.3467 51.9005 65.7334 50.9939 64.8801C50.0872 63.9734 49.3672 62.8001 48.8339 61.3601C48.3539 59.9201 48.1139 58.1601 48.1139 56.0801V11.2801C48.1139 7.60005 48.9939 4.80005 50.7539 2.88005C52.5139 0.960056 55.1539 5.72205e-05 58.6739 5.72205e-05C62.2472 5.72205e-05 64.8339 0.960056 66.4339 2.88005C68.0339 4.80005 68.8339 7.60005 68.8339 11.2801V22.8801H62.1939V11.2001C62.1939 8.69339 61.0205 7.44006 58.6739 7.44006C56.5405 7.44006 55.4739 8.69339 55.4739 11.2001V56.0801C55.4739 57.4134 55.7672 58.4001 56.3539 59.0401C56.9405 59.6267 57.6872 59.9201 58.5939 59.9201C60.8339 59.9201 62.0339 58.8001 62.1939 56.5601V42.4001H58.2739V35.3601H69.3139V66.9601H68.4339ZM74.6132 66.5601V0.720057H81.9732V66.5601H74.6132ZM103.491 66.5601C102.264 60.9067 101.171 55.9201 100.211 51.6001C99.2507 47.2801 98.3707 43.4134 97.5707 40.0001C96.8241 36.5334 96.1307 33.4134 95.4907 30.6401C94.9041 27.8134 94.3441 25.0667 93.8107 22.4001C93.9174 26.9334 93.9707 31.4667 93.9707 36.0001C93.9707 40.4801 93.9707 44.9867 93.9707 49.5201V66.5601H87.6507V0.720057H96.2907C97.3574 6.80006 98.2907 12.0801 99.0907 16.5601C99.9441 21.0401 100.691 24.9867 101.331 28.4001C101.971 31.8134 102.531 34.8801 103.011 37.6001C103.544 40.2667 104.051 42.8801 104.531 45.4401C104.424 41.6001 104.371 37.8401 104.371 34.1601C104.371 30.4801 104.371 26.8001 104.371 23.1201V0.720057H110.691V66.5601H103.491ZM131.928 66.5601C130.702 60.9067 129.608 55.9201 128.648 51.6001C127.688 47.2801 126.808 43.4134 126.008 40.0001C125.262 36.5334 124.568 33.4134 123.928 30.6401C123.342 27.8134 122.782 25.0667 122.248 22.4001C122.355 26.9334 122.408 31.4667 122.408 36.0001C122.408 40.4801 122.408 44.9867 122.408 49.5201V66.5601H116.088V0.720057H124.728C125.795 6.80006 126.728 12.0801 127.528 16.5601C128.382 21.0401 129.128 24.9867 129.768 28.4001C130.408 31.8134 130.968 34.8801 131.448 37.6001C131.982 40.2667 132.488 42.8801 132.968 45.4401C132.862 41.6001 132.808 37.8401 132.808 34.1601C132.808 30.4801 132.808 26.8001 132.808 23.1201V0.720057H139.128V66.5601H131.928ZM144.766 66.5601V0.720057H162.526V8.16006H152.126V29.2801H159.086V36.7201H152.126V59.2001H162.926V66.5601H144.766ZM181.506 14.0801C181.506 12.0534 181.266 10.5601 180.786 9.60006C180.306 8.64006 179.186 8.16006 177.426 8.16006H174.626V30.2401H177.506C180.172 30.2401 181.506 28.8267 181.506 26.0001V14.0801ZM181.506 66.5601C180.919 61.5467 180.332 56.6134 179.746 51.7601C179.159 46.9067 178.466 41.9734 177.666 36.9601H174.626V66.5601H167.186V0.720057H177.426C181.266 0.720057 184.146 1.62672 186.066 3.44006C188.039 5.20006 189.026 8.24006 189.026 12.5601V25.9201C189.026 28.4801 188.679 30.5067 187.986 32.0001C187.292 33.4401 186.199 34.5867 184.706 35.4401C185.666 40.7734 186.519 46.0001 187.266 51.1201C188.066 56.2401 188.839 61.3867 189.586 66.5601H181.506ZM228.688 66.5601V47.3601C228.688 43.0401 228.714 38.7467 228.768 34.4801C228.821 30.2134 228.901 25.9201 229.008 21.6001C228.634 24.3201 228.234 27.0934 227.808 29.9201C227.434 32.7467 227.008 35.9201 226.528 39.4401C226.101 42.9067 225.594 46.8534 225.008 51.2801C224.474 55.6534 223.834 60.7467 223.088 66.5601H216.688L210.928 21.6001C211.034 25.9201 211.114 30.2134 211.168 34.4801C211.221 38.7467 211.248 43.0401 211.248 47.3601V66.5601H204.448V0.720057H214.288C215.088 8.18672 215.781 14.4801 216.368 19.6001C216.954 24.6667 217.461 29.0401 217.888 32.7201C218.314 36.3467 218.661 39.4401 218.928 42.0001C219.248 44.5601 219.541 47.0134 219.808 49.3601C220.074 47.0667 220.368 44.6401 220.688 42.0801C221.008 39.4667 221.381 36.3467 221.808 32.7201C222.234 29.0401 222.741 24.6401 223.328 19.5201C223.914 14.4001 224.608 8.13339 225.408 0.720057H235.488V66.5601H228.688ZM240.536 11.2001C240.536 3.73339 244.029 5.72205e-05 251.016 5.72205e-05C258.056 5.72205e-05 261.576 3.73339 261.576 11.2001V56.0801C261.576 63.5467 258.056 67.2801 251.016 67.2801C244.029 67.2801 240.536 63.5467 240.536 56.0801V11.2001ZM254.216 11.2001C254.216 8.69339 253.149 7.44006 251.016 7.44006C248.936 7.44006 247.896 8.69339 247.896 11.2001V56.0801C247.896 58.6401 248.936 59.9201 251.016 59.9201C253.149 59.9201 254.216 58.6401 254.216 56.0801V11.2001ZM280.477 11.9201C280.477 10.5334 280.237 9.57339 279.757 9.04006C279.277 8.45339 278.504 8.16006 277.437 8.16006H274.157V29.6801H277.517C279.49 29.6801 280.477 28.5334 280.477 26.2401V11.9201ZM280.637 40.0001C280.637 38.6134 280.397 37.6267 279.917 37.0401C279.49 36.4534 278.69 36.1601 277.517 36.1601H274.157V59.2001H277.437C279.57 59.2001 280.637 57.9201 280.637 55.3601V40.0001ZM266.797 66.5601V0.720057H277.437C281.01 0.720057 283.544 1.62672 285.037 3.44006C286.584 5.25339 287.357 8.16006 287.357 12.1601V25.5201C287.357 29.2534 286.184 31.5734 283.837 32.4801C285.01 32.7467 286.024 33.4401 286.877 34.5601C287.73 35.6801 288.157 37.2801 288.157 39.3601V55.4401C288.157 59.3334 287.25 62.1601 285.437 63.9201C283.677 65.6801 281.01 66.5601 277.437 66.5601H266.797ZM293.051 66.5601V0.720057H300.411V66.5601H293.051ZM306.328 66.5601V0.720057H313.688V59.2001H324.488V66.5601H306.328ZM328.285 66.5601V0.720057H335.645V66.5601H328.285ZM346.363 66.5601V8.16006H339.483V0.720057H360.603V8.16006H353.723V66.5601H346.363ZM370.779 66.5601V37.7601L361.979 0.720057H369.739C370.219 3.44006 370.726 6.18672 371.259 8.96006C371.846 11.7334 372.379 14.3201 372.859 16.7201C373.339 19.0667 373.766 21.1467 374.139 22.9601C374.512 24.7201 374.752 25.9734 374.859 26.7201C374.966 25.9734 375.206 24.7201 375.579 22.9601C376.006 21.1467 376.459 19.0401 376.939 16.6401C377.472 14.2401 378.032 11.6801 378.619 8.96006C379.206 6.18672 379.739 3.44006 380.219 0.720057H387.419L378.299 37.7601V66.5601H370.779Z" fill="#CFFF79"/>
</svg>
